<svg xmlns="http://www.w3.org/2000/svg" xmlns:xlink="http://www.w3.org/1999/xlink" width="512" zoomAndPan="magnify" viewBox="0 0 384 383.999986" height="512" preserveAspectRatio="xMidYMid meet" version="1.0"><defs><clipPath id="016d6c7229"><path d="M 71.050781 52.246094 L 313.300781 52.246094 L 313.300781 331.996094 L 71.050781 331.996094 Z M 71.050781 52.246094 " clip-rule="nonzero"/></clipPath><clipPath id="513e995ad1"><path d="M 0.0507812 0.246094 L 241.949219 0.246094 L 241.949219 279.996094 L 0.0507812 279.996094 Z M 0.0507812 0.246094 " clip-rule="nonzero"/></clipPath><clipPath id="d5e51a89c6"><path d="M 0.0507812 61 L 197 61 L 197 202 L 0.0507812 202 Z M 0.0507812 61 " clip-rule="nonzero"/></clipPath><clipPath id="45359aefdb"><path d="M 0.0507812 122 L 152 122 L 152 228 L 0.0507812 228 Z M 0.0507812 122 " clip-rule="nonzero"/></clipPath><clipPath id="bd3cc5f489"><rect x="0" width="243" y="0" height="280"/></clipPath></defs><g clip-path="url(#016d6c7229)"><g transform="matrix(1, 0, 0, 1, 71, 52)"><g clip-path="url(#bd3cc5f489)"><g clip-path="url(#513e995ad1)"><path fill="#020301" d="M 121.03125 0.371094 L 241.980469 70.203125 L 241.980469 209.859375 L 121.03125 279.6875 L 0.0820312 209.859375 L 0.0820312 174.945312 L 121.03125 244.773438 L 211.746094 192.402344 L 211.746094 87.660156 L 90.792969 17.828125 Z M 121.03125 0.371094 " fill-opacity="1" fill-rule="evenodd"/></g><path fill="#ffdb15" d="M 196.621094 96.386719 L 75.675781 26.558594 L 30.316406 52.746094 L 196.621094 148.757812 Z M 196.621094 96.386719 " fill-opacity="1" fill-rule="evenodd"/><g clip-path="url(#d5e51a89c6)"><path fill="#666769" d="M 0.0820312 70.203125 L 15.207031 61.472656 L 196.621094 166.214844 L 196.621094 183.671875 L 166.382812 201.128906 L 0.0820312 105.117188 Z M 0.0820312 70.203125 " fill-opacity="1" fill-rule="evenodd"/></g><g clip-path="url(#45359aefdb)"><path fill="#ffdb15" d="M 0.0820312 122.574219 L 0.0820312 157.488281 L 121.03125 227.316406 L 151.265625 209.859375 Z M 0.0820312 122.574219 " fill-opacity="1" fill-rule="evenodd"/></g></g></g></g></svg>