<svg xmlns="http://www.w3.org/2000/svg" xmlns:xlink="http://www.w3.org/1999/xlink" zoomAndPan="magnify" viewBox="45 150 280 82" preserveAspectRatio="xMidYMid meet" version="1.0"><defs><g/><clipPath id="d1f1bfb3ef"><path d="M 46.410156 154.039062 L 112.410156 154.039062 L 112.410156 229.789062 L 46.410156 229.789062 Z M 46.410156 154.039062 " clip-rule="nonzero"/></clipPath><clipPath id="925415ce67"><path d="M 0.410156 0.0390625 L 66.105469 0.0390625 L 66.105469 75.789062 L 0.410156 75.789062 Z M 0.410156 0.0390625 " clip-rule="nonzero"/></clipPath><clipPath id="2742d1c986"><path d="M 0.410156 16 L 54 16 L 54 55 L 0.410156 55 Z M 0.410156 16 " clip-rule="nonzero"/></clipPath><clipPath id="9022c5a654"><path d="M 0.410156 33 L 42 33 L 42 62 L 0.410156 62 Z M 0.410156 33 " clip-rule="nonzero"/></clipPath><clipPath id="c1288f2f79"><rect x="0" width="67" y="0" height="76"/></clipPath><clipPath id="25a12bf240"><rect x="0" width="191" y="0" height="46"/></clipPath></defs><path stroke-linecap="butt" transform="matrix(0, 0.75, -0.75, 0, 127.169704, 173.249986)" fill="none" stroke-linejoin="miter" d="M 0.0000182875 0.502314 L 50.015647 0.502314 " stroke="#f3f5f9" stroke-width="1" stroke-opacity="1" stroke-miterlimit="4"/><g clip-path="url(#d1f1bfb3ef)"><g transform="matrix(1, 0, 0, 1, 46, 154)"><g clip-path="url(#c1288f2f79)"><g clip-path="url(#925415ce67)"><path fill="#020301" d="M 33.265625 0.078125 L 66.113281 19.042969 L 66.113281 56.96875 L 33.265625 75.933594 L 0.417969 56.96875 L 0.417969 47.488281 L 33.265625 66.453125 L 57.902344 52.230469 L 57.902344 23.78125 L 25.054688 4.816406 Z M 33.265625 0.078125 " fill-opacity="1" fill-rule="evenodd"/></g><path fill="#ffdb15" d="M 53.796875 26.152344 L 20.949219 7.1875 L 8.628906 14.300781 L 53.796875 40.375 Z M 53.796875 26.152344 " fill-opacity="1" fill-rule="evenodd"/><g clip-path="url(#2742d1c986)"><path fill="#666769" d="M 0.417969 19.042969 L 4.527344 16.671875 L 53.796875 45.117188 L 53.796875 49.859375 L 45.582031 54.597656 L 0.417969 28.523438 Z M 0.417969 19.042969 " fill-opacity="1" fill-rule="evenodd"/></g><g clip-path="url(#9022c5a654)"><path fill="#ffdb15" d="M 0.417969 33.265625 L 0.417969 42.746094 L 33.265625 61.710938 L 41.476562 56.96875 Z M 0.417969 33.265625 " fill-opacity="1" fill-rule="evenodd"/></g></g></g></g><g transform="matrix(1, 0, 0, 1, 133, 169)"><g clip-path="url(#25a12bf240)"><g fill="#f3f5f9" fill-opacity="1"><g transform="translate(1.131784, 33.367981)"><g><path d="M 15.25 -11.28125 C 16.53125 -11.007812 17.554688 -10.375 18.328125 -9.375 C 19.097656 -8.382812 19.484375 -7.253906 19.484375 -5.984375 C 19.484375 -4.148438 18.835938 -2.691406 17.546875 -1.609375 C 16.265625 -0.535156 14.476562 0 12.1875 0 L 1.9375 0 L 1.9375 -22 L 11.84375 -22 C 14.070312 -22 15.816406 -21.484375 17.078125 -20.453125 C 18.347656 -19.429688 18.984375 -18.046875 18.984375 -16.296875 C 18.984375 -14.992188 18.644531 -13.914062 17.96875 -13.0625 C 17.289062 -12.207031 16.382812 -11.613281 15.25 -11.28125 Z M 7.296875 -13.09375 L 10.8125 -13.09375 C 11.6875 -13.09375 12.359375 -13.285156 12.828125 -13.671875 C 13.296875 -14.054688 13.53125 -14.625 13.53125 -15.375 C 13.53125 -16.132812 13.296875 -16.710938 12.828125 -17.109375 C 12.359375 -17.503906 11.6875 -17.703125 10.8125 -17.703125 L 7.296875 -17.703125 Z M 11.25 -4.328125 C 12.144531 -4.328125 12.835938 -4.53125 13.328125 -4.9375 C 13.816406 -5.34375 14.0625 -5.929688 14.0625 -6.703125 C 14.0625 -7.472656 13.804688 -8.078125 13.296875 -8.515625 C 12.785156 -8.953125 12.082031 -9.171875 11.1875 -9.171875 L 7.296875 -9.171875 L 7.296875 -4.328125 Z M 11.25 -4.328125 "/></g></g></g><g fill="#f3f5f9" fill-opacity="1"><g transform="translate(20.455931, 33.367981)"><g><path d="M 13.15625 0 L 8.578125 -8.296875 L 7.296875 -8.296875 L 7.296875 0 L 1.9375 0 L 1.9375 -22 L 10.9375 -22 C 12.664062 -22 14.140625 -21.691406 15.359375 -21.078125 C 16.585938 -20.472656 17.503906 -19.644531 18.109375 -18.59375 C 18.710938 -17.539062 19.015625 -16.363281 19.015625 -15.0625 C 19.015625 -13.601562 18.601562 -12.300781 17.78125 -11.15625 C 16.957031 -10.007812 15.738281 -9.191406 14.125 -8.703125 L 19.203125 0 Z M 7.296875 -12.09375 L 10.625 -12.09375 C 11.601562 -12.09375 12.335938 -12.332031 12.828125 -12.8125 C 13.316406 -13.289062 13.5625 -13.96875 13.5625 -14.84375 C 13.5625 -15.6875 13.316406 -16.347656 12.828125 -16.828125 C 12.335938 -17.304688 11.601562 -17.546875 10.625 -17.546875 L 7.296875 -17.546875 Z M 7.296875 -12.09375 "/></g></g></g><g fill="#f3f5f9" fill-opacity="1"><g transform="translate(39.560843, 33.367981)"><g><path d="M 15.625 -3.890625 L 7.421875 -3.890625 L 6.109375 0 L 0.5 0 L 8.453125 -22 L 14.65625 -22 L 22.625 0 L 16.953125 0 Z M 14.25 -8.015625 L 11.53125 -16.078125 L 8.828125 -8.015625 Z M 14.25 -8.015625 "/></g></g></g><g fill="#f3f5f9" fill-opacity="1"><g transform="translate(61.327951, 33.367981)"><g><path d="M 21.609375 0 L 16.265625 0 L 7.296875 -13.5625 L 7.296875 0 L 1.9375 0 L 1.9375 -22 L 7.296875 -22 L 16.265625 -8.359375 L 16.265625 -22 L 21.609375 -22 Z M 21.609375 0 "/></g></g></g><g fill="#f3f5f9" fill-opacity="1"><g transform="translate(83.564863, 33.367981)"><g><path d="M 10.1875 -22 C 12.5 -22 14.519531 -21.535156 16.25 -20.609375 C 17.988281 -19.691406 19.332031 -18.398438 20.28125 -16.734375 C 21.226562 -15.078125 21.703125 -13.164062 21.703125 -11 C 21.703125 -8.84375 21.226562 -6.925781 20.28125 -5.25 C 19.332031 -3.582031 17.984375 -2.289062 16.234375 -1.375 C 14.492188 -0.457031 12.476562 0 10.1875 0 L 1.9375 0 L 1.9375 -22 Z M 9.84375 -4.640625 C 11.863281 -4.640625 13.4375 -5.191406 14.5625 -6.296875 C 15.695312 -7.398438 16.265625 -8.96875 16.265625 -11 C 16.265625 -13.019531 15.695312 -14.59375 14.5625 -15.71875 C 13.4375 -16.851562 11.863281 -17.421875 9.84375 -17.421875 L 7.296875 -17.421875 L 7.296875 -4.640625 Z M 9.84375 -4.640625 "/></g></g></g><g fill="#f3f5f9" fill-opacity="1"><g transform="translate(105.018775, 33.367981)"><g/></g></g><g fill="#f3f5f9" fill-opacity="1"><g transform="translate(110.342884, 33.367981)"><g><path d="M 20.984375 -22 L 20.984375 0 L 15.625 0 L 15.625 -9.046875 L 7.296875 -9.046875 L 7.296875 0 L 1.9375 0 L 1.9375 -22 L 7.296875 -22 L 7.296875 -13.375 L 15.625 -13.375 L 15.625 -22 Z M 20.984375 -22 "/></g></g></g><g fill="#f3f5f9" fill-opacity="1"><g transform="translate(131.92207, 33.367981)"><g><path d="M 20.796875 -22 L 13.1875 -7.265625 L 13.1875 0 L 7.828125 0 L 7.828125 -7.265625 L 0.21875 -22 L 6.296875 -22 L 10.5625 -12.78125 L 14.78125 -22 Z M 20.796875 -22 "/></g></g></g><g fill="#f3f5f9" fill-opacity="1"><g transform="translate(151.62206, 33.367981)"><g><path d="M 22.59375 -22 L 14.78125 0 L 8.078125 0 L 0.28125 -22 L 5.984375 -22 L 11.4375 -5.390625 L 16.921875 -22 Z M 22.59375 -22 "/></g></g></g><g fill="#f3f5f9" fill-opacity="1"><g transform="translate(173.169933, 33.367981)"><g><path d="M 7.296875 -17.703125 L 7.296875 -13.25 L 14.46875 -13.25 L 14.46875 -9.109375 L 7.296875 -9.109375 L 7.296875 -4.296875 L 15.40625 -4.296875 L 15.40625 0 L 1.9375 0 L 1.9375 -22 L 15.40625 -22 L 15.40625 -17.703125 Z M 7.296875 -17.703125 "/></g></g></g></g></g></svg>